<svg xmlns="http://www.w3.org/2000/svg" viewBox="0 0 204.57496 204.57493">
  <defs>
    <style>
      .cls-1 {
        fill: #b0ed2b;
      }

      .cls-2 {
        fill: #53c1b3;
      }

      .cls-3 {
        fill: #cc5858;
      }

      .cls-4 {
        fill: #f2f1f0;
      }
    </style>
  </defs>
  <title>forkmaps_icon_w</title>
  <g id="Layer_2" data-name="Layer 2">
    <g id="Layer_1-2" data-name="Layer 1">
      <g>
        <rect class="cls-1" x="157.21348" y="-4.61659" width="16.211" height="64.83375" rx="2.0602" ry="2.0602" transform="translate(28.76304 125.04069) rotate(-45)"/>
        <rect class="cls-1" x="185.86354" y="2.51276" width="16.211" height="16.20074" rx="2.0602" ry="2.0602" transform="translate(49.3076 140.26534) rotate(-45)"/>
        <rect class="cls-2" x="25.43139" y="-6.98556" width="16.20074" height="81.03456" rx="2.0602" ry="2.0602" transform="translate(-13.88928 33.53175) rotate(-45)"/>
        <rect class="cls-1" x="122.83563" y="-9.36318" width="16.211" height="97.2455" rx="2.0602" ry="2.0602" transform="translate(10.59106 104.08822) rotate(-45)"/>
        <path class="cls-3" d="M172.50363,203.97151l8.54938-8.54938a2.0602,2.0602,0,0,0,0-2.91356l-46.34476-46.3447a2.0602,2.0602,0,0,1,1.45678-3.517h17.9376l3.237.00443a2.0602,2.0602,0,0,0,2.063-2.06019l0-10.81394c0-2.9705-1.60171-3.335-2.69116-3.335H113.37479a2.0602,2.0602,0,0,0-1.45678.60342L46.4478,192.51583a2.0602,2.0602,0,0,0,0,2.91356l8.54211,8.54211a2.0602,2.0602,0,0,0,2.91356,0l8.54931-8.54936a2.0602,2.0602,0,0,1,2.91356,0l8.54937,8.54937a2.0602,2.0602,0,0,0,2.91356,0l8.54207-8.54211a2.0602,2.0602,0,0,0,0-2.91355L80.822,183.96646a2.0602,2.0602,0,0,1,0-2.91356l8.54932-8.54932a2.0602,2.0602,0,0,1,2.91356,0l31.468,31.46794a2.0602,2.0602,0,0,0,2.91356,0l8.54937-8.54932a2.0602,2.0602,0,0,0,0-2.91356l-31.468-31.468a2.0602,2.0602,0,0,1,0-2.91356L112.29,149.585a2.0602,2.0602,0,0,1,2.91356,0l54.38655,54.38655A2.0602,2.0602,0,0,0,172.50363,203.97151Z"/>
        <rect class="cls-1" x="180.1408" y="57.43517" width="16.20074" height="32.41175" rx="2.0602" ry="2.0602" transform="translate(3.06248 154.67557) rotate(-45)"/>
        <path class="cls-2" d="M89.37142,80.82928,12.06633,158.13437a2.0602,2.0602,0,0,1-2.91356,0L.60342,149.585a2.0602,2.0602,0,0,1,0-2.91356l20.005-20.005a2.0602,2.0602,0,0,0,0-2.91356l-20.005-20.005a2.0602,2.0602,0,0,1,0-2.91356L9.15277,92.285a2.0602,2.0602,0,0,1,2.91356,0l20.005,20.005a2.0602,2.0602,0,0,0,2.91356,0l8.54935-8.54935a2.0602,2.0602,0,0,0,0-2.91356L.61063,57.90346a2.0602,2.0602,0,0,1,0-2.91356L8.59157,47.009h0c.70558-.7257,2.53958-1.51915,3.794-.2529.06138.062-.00549.00549-.00549.00549L54.98994,89.37137a2.0602,2.0602,0,0,0,2.91356,0l20.005-20.005a2.0602,2.0602,0,0,1,2.91356,0l8.54935,8.54935A2.0602,2.0602,0,0,1,89.37142,80.82928Z"/>
        <path class="cls-4" d="M174.84768,94.629a2.0602,2.0602,0,0,0-1.45677-.60342l-46.40487,0h0a2.0602,2.0602,0,0,1-1.4568-3.517l9.67931-9.67931a2.0602,2.0602,0,0,0,0-2.91356L57.90346.61063a2.0602,2.0602,0,0,0-2.91356,0L46.44781,9.15272a2.0602,2.0602,0,0,0,0,2.91356l65.84944,65.84944a2.0602,2.0602,0,0,1,0,2.91356L.61068,192.51585a2.0602,2.0602,0,0,0,0,2.91356l8.54209,8.54209a2.0602,2.0602,0,0,0,2.91356,0l93.1378-93.1378a2.0602,2.0602,0,0,1,1.45678-.60342H121.686l5.3.00726,1.74738-.00726h37.93638a2.0602,2.0602,0,0,1,1.45678.60342l24.3821,24.3821a2.0602,2.0602,0,0,0,2.91356,0l8.54935-8.54935a2.0602,2.0602,0,0,0,0-2.91356Z"/>
        <rect class="cls-3" x="180.13208" y="149.1131" width="16.211" height="32.41175" rx="2.0602" ry="2.0602" transform="translate(-61.76466 181.52488) rotate(-45)"/>
      </g>
    </g>
  </g>
</svg>
